<svg xmlns="http://www.w3.org/2000/svg" xmlns:xlink="http://www.w3.org/1999/xlink" version="1.1" width="1080" height="1080" viewBox="0 0 1080 1080" xml:space="preserve">
<desc>Created with Fabric.js 3.5.0</desc>
<defs>
</defs>
<rect x="0" y="0" width="100%" height="100%" fill="rgba(255,2,255,0)"/>
<g transform="matrix(1.918 0 0 1.918 540.009 540.009)" id="579282">
<g style="" vector-effect="non-scaling-stroke">
		<g transform="matrix(1 0 0 1 187.2291 37.3971)" id="Layer_1">
<path style="stroke: none; stroke-width: 1; stroke-dasharray: none; stroke-linecap: butt; stroke-dashoffset: 0; stroke-linejoin: miter; stroke-miterlimit: 4; is-custom-font: none; font-file-url: none; fill: rgb(53,100,253); fill-rule: nonzero; opacity: 1;" transform=" translate(-443.2296, -293.3977)" d="M 509.125 159.42 c -4.988 -7.033 -14.732 -8.695 -21.766 -3.708 L 402.017 216.2 h -0.208 c -9.24 12.007 -12.19 15.838 -20.94 27.206 c -0.364 0.474 -0.925 0.755 -1.523 0.764 c -0.598 0.009 -1.169 -0.254 -1.547 -0.716 l -3.299 -4.023 l -0.042 -0.051 v 0.051 V 433.96 h 47.567 c 4.399 0 7.846 -3.789 7.435 -8.166 l -16.823 -178.848 l 92.779 -65.76 C 512.45 176.2 514.111 166.455 509.125 159.42 z" stroke-linecap="round"/>
</g>
		<g transform="matrix(1 0 0 1 154.6844 -168.0307)" id="Layer_1">
<path style="stroke: none; stroke-width: 1; stroke-dasharray: none; stroke-linecap: butt; stroke-dashoffset: 0; stroke-linejoin: miter; stroke-miterlimit: 4; is-custom-font: none; font-file-url: none; fill: rgb(53,100,253); fill-rule: nonzero; opacity: 1;" transform=" translate(-410.6849, -87.9698)" d="M 457.057 89.413 l -29.528 -48.651 c -0.558 -0.92 -1.515 -1.523 -2.585 -1.63 l -56.625 -5.698 c -1.227 -0.124 -2.426 0.422 -3.139 1.428 c -0.713 1.007 -0.829 2.317 -0.306 3.433 l 10.389 22.153 l -10.711 16.979 c -1.407 2.234 -0.739 5.187 1.494 6.595 l 46.334 29.229 c 2.234 1.409 5.185 0.741 6.594 -1.493 l 10.711 -16.979 l 12.648 -0.085 v 43.411 c 0 2.44 1.979 4.418 4.419 4.418 s 4.419 -1.978 4.419 -4.418 v -43.47 l 2.982 -0.02 c 1.234 -0.009 2.366 -0.678 2.968 -1.755 C 457.721 91.783 457.697 90.467 457.057 89.413 z" stroke-linecap="round"/>
</g>
		<g transform="matrix(1 0 0 1 135.942 205.904)" id="Layer_1">
<path style="stroke: none; stroke-width: 1; stroke-dasharray: none; stroke-linecap: butt; stroke-dashoffset: 0; stroke-linejoin: miter; stroke-miterlimit: 4; is-custom-font: none; font-file-url: none; fill: rgb(53,100,253); fill-rule: nonzero; opacity: 1;" transform=" translate(-391.9425, -461.9045)" d="M 372.59 445.224 v 14.009 h 0.001 c 0 10.688 8.664 19.352 19.352 19.352 c 10.688 0 19.352 -8.664 19.352 -19.352 v -14.009 H 372.59 z" stroke-linecap="round"/>
</g>
		<g transform="matrix(1 0 0 1 88.882 205.904)" id="Layer_1">
<path style="stroke: none; stroke-width: 1; stroke-dasharray: none; stroke-linecap: butt; stroke-dashoffset: 0; stroke-linejoin: miter; stroke-miterlimit: 4; is-custom-font: none; font-file-url: none; fill: rgb(53,100,253); fill-rule: nonzero; opacity: 1;" transform=" translate(-344.8825, -461.9045)" d="M 325.53 445.224 v 14.009 h 0.001 c 0 10.688 8.664 19.352 19.352 19.352 c 10.688 0 19.352 -8.664 19.352 -19.352 v -14.009 H 325.53 z" stroke-linecap="round"/>
</g>
		<g transform="matrix(1 0 0 1 37.9027 37.3961)" id="Layer_1">
<path style="stroke: none; stroke-width: 1; stroke-dasharray: none; stroke-linecap: butt; stroke-dashoffset: 0; stroke-linejoin: miter; stroke-miterlimit: 4; is-custom-font: none; font-file-url: none; fill: rgb(53,100,253); fill-rule: nonzero; opacity: 1;" transform=" translate(-293.9032, -293.3965)" d="M 362.97 239.431 v -0.051 l -0.042 0.051 l -3.299 4.023 c -0.379 0.463 -0.949 0.726 -1.546 0.717 c -0.598 -0.01 -1.159 -0.292 -1.524 -0.765 c -7.257 -9.429 -8.688 -11.289 -19.975 -25.955 l -87.108 -61.74 c -7.036 -4.987 -16.781 -3.326 -21.766 3.708 c -4.987 7.035 -3.325 16.781 3.709 21.766 l 93.109 65.994 l -16.801 178.614 c -0.412 4.38 3.038 8.166 7.435 8.166 h 47.811 V 239.431 H 362.97 z" stroke-linecap="round"/>
</g>
		<g transform="matrix(1 0 0 1 112.4215 -83.4315)" id="Layer_1">
<circle style="stroke: none; stroke-width: 1; stroke-dasharray: none; stroke-linecap: butt; stroke-dashoffset: 0; stroke-linejoin: miter; stroke-miterlimit: 4; is-custom-font: none; font-file-url: none; fill: rgb(53,100,253); fill-rule: nonzero; opacity: 1;" cx="0" cy="0" r="33.423"/>
</g>
		<g transform="matrix(1 0 0 1 112.714 -32.191)" id="Layer_1">
<polygon style="stroke: none; stroke-width: 1; stroke-dasharray: none; stroke-linecap: butt; stroke-dashoffset: 0; stroke-linejoin: miter; stroke-miterlimit: 4; is-custom-font: none; font-file-url: none; fill: rgb(53,100,253); fill-rule: nonzero; opacity: 1;" points="-12.8595,-7.6095 0.0005,7.6095 12.8595,-7.6095 "/>
</g>
		<g transform="matrix(1 0 0 1 -147.1111 -148.3134)" id="Layer_1">
<path style="stroke: none; stroke-width: 1; stroke-dasharray: none; stroke-linecap: butt; stroke-dashoffset: 0; stroke-linejoin: miter; stroke-miterlimit: 4; is-custom-font: none; font-file-url: none; fill: rgb(53,100,253); fill-rule: nonzero; opacity: 1;" transform=" translate(-108.8894, -107.687)" d="M 155.437 78.668 c -0.289 -1.042 -1.117 -1.849 -2.168 -2.113 l -48.455 -12.123 c -0.916 -0.229 -1.886 -0.015 -2.62 0.579 l -38.846 31.4 c -0.841 0.68 -1.252 1.761 -1.076 2.828 c 0.177 1.068 0.913 1.959 1.928 2.333 l 2.007 0.737 v 44.562 c 0 2.298 1.863 4.161 4.162 4.161 c 2.298 0 4.162 -1.863 4.162 -4.161 v -41.504 l 9.828 3.611 l 3.673 16.634 c 0.569 2.579 3.121 4.207 5.698 3.638 l 45.81 -10.115 c 2.578 -0.569 4.207 -3.121 3.638 -5.699 l -3.673 -16.635 l 15.164 -15.207 C 155.434 80.829 155.727 79.71 155.437 78.668 z" stroke-linecap="round"/>
</g>
		<g transform="matrix(1 0 0 1 -79.0675 35.6379)" id="Layer_1">
<path style="stroke: none; stroke-width: 1; stroke-dasharray: none; stroke-linecap: butt; stroke-dashoffset: 0; stroke-linejoin: miter; stroke-miterlimit: 4; is-custom-font: none; font-file-url: none; fill: rgb(53,100,253); fill-rule: nonzero; opacity: 1;" transform=" translate(-176.933, -291.6383)" d="M 209.475 146.321 c -7.198 -3.066 -15.519 0.286 -18.584 7.485 l -39.534 92.864 h 5.251 c 0.746 0 1.429 0.425 1.759 1.095 c 0.33 0.67 0.249 1.468 -0.207 2.06 c -12.239 15.903 -12.371 16.074 -16.432 21.351 c -0.364 0.474 -0.925 0.755 -1.523 0.764 c -0.598 0.009 -1.169 -0.254 -1.547 -0.716 l -2.849 -3.475 l -0.039 -0.047 v 0.047 v 170.343 h 43.138 c 4.001 0 7.131 -3.454 6.744 -7.432 l -15.26 -156.75 c 0.808 -1.323 -2.231 5.627 46.569 -109.005 C 220.024 157.706 216.674 149.386 209.475 146.321 z" stroke-linecap="round"/>
</g>
		<g transform="matrix(1 0 0 1 -104.3635 207.449)" id="Layer_1">
<path style="stroke: none; stroke-width: 1; stroke-dasharray: none; stroke-linecap: butt; stroke-dashoffset: 0; stroke-linejoin: miter; stroke-miterlimit: 4; is-custom-font: none; font-file-url: none; fill: rgb(53,100,253); fill-rule: nonzero; opacity: 1;" transform=" translate(-151.637, -463.4495)" d="M 134.077 448.313 v 12.712 h -0.001 c 0 9.698 7.861 17.561 17.561 17.561 s 17.561 -7.862 17.561 -17.561 v -12.712 H 134.077 z" stroke-linecap="round"/>
</g>
		<g transform="matrix(1 0 0 1 -147.0665 207.449)" id="Layer_1">
<path style="stroke: none; stroke-width: 1; stroke-dasharray: none; stroke-linecap: butt; stroke-dashoffset: 0; stroke-linejoin: miter; stroke-miterlimit: 4; is-custom-font: none; font-file-url: none; fill: rgb(53,100,253); fill-rule: nonzero; opacity: 1;" transform=" translate(-108.934, -463.4495)" d="M 91.373 448.313 v 12.712 c 0 9.698 7.861 17.561 17.561 17.561 c 9.699 0 17.561 -7.862 17.561 -17.561 v -12.712 H 91.373 z" stroke-linecap="round"/>
</g>
		<g transform="matrix(1 0 0 1 -193.3279 57.6324)" id="Layer_1">
<path style="stroke: none; stroke-width: 1; stroke-dasharray: none; stroke-linecap: butt; stroke-dashoffset: 0; stroke-linejoin: miter; stroke-miterlimit: 4; is-custom-font: none; font-file-url: none; fill: rgb(53,100,253); fill-rule: nonzero; opacity: 1;" transform=" translate(-62.6727, -313.6329)" d="M 125.308 267.75 l -2.849 3.475 c -0.379 0.463 -0.949 0.726 -1.546 0.717 c -0.598 -0.01 -1.159 -0.292 -1.524 -0.765 c -6.007 -7.804 -2.599 -3.378 -17.986 -23.371 L 22.36 191.783 c -6.383 -4.523 -15.226 -3.017 -19.751 3.366 c -4.524 6.384 -3.017 15.226 3.366 19.751 l 84.445 59.853 L 75.244 430.66 c -0.388 3.982 2.745 7.432 6.744 7.432 h 43.358 V 267.75 v -0.047 L 125.308 267.75 z" stroke-linecap="round"/>
</g>
		<g transform="matrix(1 0 0 1 -125.7105 -48.9185)" id="Layer_1">
<circle style="stroke: none; stroke-width: 1; stroke-dasharray: none; stroke-linecap: butt; stroke-dashoffset: 0; stroke-linejoin: miter; stroke-miterlimit: 4; is-custom-font: none; font-file-url: none; fill: rgb(53,100,253); fill-rule: nonzero; opacity: 1;" cx="0" cy="0" r="30.324"/>
</g>
		<g transform="matrix(1 0 0 1 -125.442 -2.425)" id="Layer_1">
<polygon style="stroke: none; stroke-width: 1; stroke-dasharray: none; stroke-linecap: butt; stroke-dashoffset: 0; stroke-linejoin: miter; stroke-miterlimit: 4; is-custom-font: none; font-file-url: none; fill: rgb(53,100,253); fill-rule: nonzero; opacity: 1;" points="-11.6685,-6.9055 -0.0005,6.9055 11.6685,-6.9055 "/>
</g>
</g>
</g>
</svg>