<svg version="1.1" id="Capa_1" xmlns="http://www.w3.org/2000/svg" xmlns:xlink="http://www.w3.org/1999/xlink" x="0px" y="0px" viewBox="0 0 1200 1200" enable-background="new 0 0 1200 1200" xml:space="preserve">
	<path d="M898.028,613.737C837.607,555.308,728.765,447.83,699.005,431.32c-4.873,2.047-11.582,4.798-15.432,6.508
		c-4.033,1.793,4.109-8.159,10.507-15.571c-1.061-10.858-2.997-31.071-3.498-39.093c-0.701-11.213,10.512-58.169,9.811-60.271
		c-0.45-1.35-3.49-10.339-4.688-16.335c-8.113-2.713-26.061-6.298-40.134,8.276c0,0,16.438-23.653,40.617-13.666
		c0.559,0.168,1.902,2.773,3.837,7.095l0.007,0.012l-0.001-0.001c10.196,22.769,37.01,93.597,54.677,112.736
		c0,0,17.871,37.845,42.4,64.827c24.529,26.982,40.298,54.665,46.605,60.622c6.307,5.957,17.871,5.607,17.871,5.607
		s16.82,7.709,17.871,8.936c1.051,1.226,13.666,19.799,18.222,17.696c2.276-1.05,2.54-4.112,2.235-6.913
		c1.906,7.453,6.242,20.255,13.885,21.981c0,0-10.162-57.118-11.213-58.519c-1.051-1.402-42.05-13.316-42.05-13.316
		s-54.665-108.629-73.237-125.799l-50.109-112.483c0,0-0.701-31.537-16.119-45.204c-8.948-7.931-22.727-7.421-33.168-5.667
		c-8.437-2.135-18.56-4.748-22.198-5.897c-5.45-1.721-5.265-10.244-5.018-13.282c4.992,2.624,9.385,4.719,11.284,5.066
		c5.645,1.031,10.131-1.723,11.392-3.774c2.02-3.287,0.785-10.067,0.785-10.067s1.569-1.544,2.155-1.872
		c1.709-0.957-0.092-4.044-0.092-4.044s1.429-1.232,3.025-2.521s0.416-3.051,0.344-4.879c-0.015-0.374,0.079-1.719,1.093-2.297
		c1.603-0.912,4.646-1.218,6.658-2.716c2.932-2.182,3.996-5.401,3.376-7.221c-1.818-5.344-5.433-15.502-5.041-17.659
		c0.526-2.891,8.197-12.484,8.197-14.342c0-1.529,0.676-16.871,0.917-22.271c3.477-4.053,6.24-10.673,2.411-20.379
		c-6.497-16.468-13.665-27.61-29.691-24.287c-0.1-0.554-0.197-1.104-0.353-1.705c-1.236-4.761-4.7-7.977-8.623-10.169
		c-0.091-2.549-1.004-5.54-3.736-8.558c-7.164-7.914-14.85-0.088-14.85-0.088s-2.338-7.348-16.009-6.729
		c-0.874,0.04-1.72,0.142-2.541,0.294c-2.936-2.619-7.121-4.376-12.949-2.755c-14.204,3.951-14.685,18.196-14.685,18.196
		c-17.415,8.905-10.89,25.693-8.185,31.118c-6.227,4.42-11.971,13.24-10.542,26.712c0,0.003,0,0.006,0,0.009
		c1.938,27.097,11.078,41.242,19.382,49.064c0.49,0.733,0.791,1.156,0.791,1.156s0.041-0.142,0.099-0.341
		c0.393,0.352,0.781,0.687,1.168,1.012c-2.011,4.831-4.507,10.493-7.34,16.214c-10.309,20.819-19.928,32.952-72.186,42.225
		c-54.198,9.617-22.602,76.215-27.858,109.855c-5.256,33.64,4.205,54.139-6.833,67.28c-11.038,13.141-64.126,91.458-71.485,107.227
		c0,0-36.005,22.864-38.108,26.018c-2.102,3.154-3.942,16.557-6.833,21.813s-3.942,10.25-3.417,12.615s-0.523,20.499-0.13,21.288
		c0.393,0.789,3.547-0.789,6.438-7.622c2.891-6.833,3.417-14.718,3.417-14.718s14.98-21.288,24.704-24.441
		c9.724-3.154,32.589-17.871,33.377-22.602c0.788-4.731,2.103-7.096,2.103-7.096s70.959-71.485,79.632-81.472
		c8.673-9.987,14.98-15.243,14.717-21.55c-0.263-6.308-1.314-49.934-1.314-49.934s-8.06-13.579-9.636-28.033
		c-1.577-14.455,2.692-22.062,2.692-22.062s3.204-4.432,4.96-6.209c18.71-18.931,47.889-6.069,47.889-6.069
		c-22.757-6.502-48.451,7.361-51.498,18.739c-3.046,11.378,2.025,35.011,10.587,41.796c0,0,19.12,29.718,22.42,53.351
		c7.36,24.523,58.789,29.435,58.789,29.435c-32.9,6.437-52.164-9.505-61.125-20.357c-10.438,15.764-49.976,70.531-110.228,94.995
		c0,0-7.008,15.418-18.922,22.076c-11.914,6.658-30.837,15.418-30.837,15.418s-13.666,17.17-14.017,21.375
		s-3.504,17.871-12.615,23.828c-9.111,5.957-56.066,40.999-69.382,55.366c-3.119,3.366-6.507,6.921-9.868,10.396
		c102.555-28.523,195.588-115.696,195.588-115.696c-49.409,81.121-217.257,137.538-217.257,137.538s-140.166,44.503-161.892,43.101
		c-21.726-1.402-49.409,11.914-49.409,11.914s15.686,56.15,54.639,123.792C370.324,854.862,511.17,597.618,511.17,597.618
		s-54,114.261-144.371,188.523c-85.585,70.329-199.024,111.36-231.928,121.535c44.242,67.464,111.099,139.525,207.399,176.318
		c18.98,7.252,37.372,13.749,55.167,19.581c25.205-74.274,97.505-294.943,136.592-427.75c12.663-43.024,25.627-107.026,8.342,5.96
		c-15.873,103.761-92.436,344.657-124.746,428.207c141.504,43.479,241.817,43.553,285.642,36.649
		c-8.361-43.966-23.7-127.526-31.605-188.796c-11.213-86.903-13.42-353.116-4.385-210.46c9.977,157.526,27.72,336.742,58.207,393.559
		c35.453-12.376,167.602-45.973,186.563-52.745c7.084-2.53,27.958-17.573,52.171-36.125c-9.777-63.623-36.988-226.245-70.393-303.077
		c-42.05-96.715-123.346-201.839-123.346-201.839s175.208,149.277,200.438,454.839v44.921c41.532-32.101,89.791-71.786,95.313-76.459
		c9.111-7.709,72.186-72.185,72.186-72.185S961.804,675.41,898.028,613.737z M662.32,62.972c2.182,0.408,3.339,2.22,3.937,4.344
		c-6.447-2.895-13.236-3.374-13.236-3.374S656.381,61.862,662.32,62.972z M618.59,55.388c2.688-1.696,5.566-1.54,8.24-0.559
		c-9.05,4.136-13.769,14.129-13.769,14.129S610.216,60.671,618.59,55.388z" style="fill: rgb(159, 108, 178);"></path>
	</svg>