<?xml version="1.0" standalone="no"?>
<!DOCTYPE svg PUBLIC "-//W3C//DTD SVG 20010904//EN"
 "http://www.w3.org/TR/2001/REC-SVG-20010904/DTD/svg10.dtd">
<svg version="1.0" xmlns="http://www.w3.org/2000/svg"
 width="500.000000pt" height="500.000000pt" viewBox="0 0 500.000000 500.000000"
 preserveAspectRatio="xMidYMid meet">

<g transform="translate(0.000000,500.000000) scale(0.100000,-0.100000)"
fill="#000000" stroke="none">
<path d="M2348 3899 c-31 -4 -72 -12 -90 -17 l-33 -9 68 -31 67 -31 0 -130 c0
-132 -9 -166 -32 -114 -40 90 -133 197 -211 241 l-38 22 -62 -31 c-105 -53
-208 -129 -293 -214 -78 -79 -144 -163 -144 -184 0 -33 148 -119 332 -192 241
-96 380 -179 437 -262 53 -78 64 -117 59 -220 -3 -77 -9 -103 -36 -160 -60
-128 -197 -228 -362 -263 -128 -27 -351 -4 -493 52 -16 6 -15 0 8 -46 98 -193
290 -381 494 -484 68 -35 184 -73 279 -92 86 -16 298 -19 392 -3 89 14 230 63
323 112 78 42 208 134 214 152 2 6 -39 10 -109 10 -92 0 -113 3 -116 15 -1 8
8 20 20 25 13 6 32 28 43 50 19 39 20 63 23 718 l3 677 -78 0 c-199 0 -283
-40 -360 -167 -13 -24 -30 -43 -35 -43 -12 0 -5 220 7 240 4 7 118 10 352 10
190 -1 347 1 349 3 2 2 -26 33 -64 69 -239 231 -589 345 -914 297z"/>
<path d="M3272 2803 c3 -739 4 -757 49 -717 35 32 115 147 152 219 90 174 120
300 120 510 0 242 -50 411 -180 607 l-46 68 -49 0 -49 0 3 -687z"/>
<path d="M1451 3133 c-34 -115 -43 -194 -39 -350 l3 -149 40 -59 c85 -123 203
-200 358 -232 71 -14 98 -15 159 -7 178 26 292 138 290 286 -1 86 -19 132 -77
196 -62 68 -150 121 -331 198 -210 89 -246 106 -308 146 -32 21 -62 38 -67 38
-4 0 -17 -30 -28 -67z"/>
<path d="M1991 1406 c-10 -12 -8 -13 8 -9 12 3 21 9 21 14 0 14 -16 11 -29 -5z"/>
<path d="M1486 1365 c4 -8 10 -15 15 -15 5 0 9 7 9 15 0 8 -7 15 -15 15 -9 0
-12 -6 -9 -15z"/>
<path d="M1748 1371 c10 -6 13 -32 10 -100 -2 -76 0 -91 12 -91 12 0 15 18 15
100 l0 100 -25 0 c-17 0 -21 -3 -12 -9z"/>
<path d="M1949 1367 c-40 -30 -51 -96 -24 -146 8 -16 21 -31 29 -34 12 -5 12
-2 0 21 -19 37 -18 117 2 147 18 28 17 30 -7 12z"/>
<path d="M2137 1363 c11 -10 44 -54 74 -98 46 -68 54 -76 57 -56 2 13 0 26 -5
30 -5 3 -28 36 -52 74 -35 54 -48 67 -69 67 -25 0 -25 0 -5 -17z"/>
<path d="M2258 1373 c6 -2 18 -2 25 0 6 3 1 5 -13 5 -14 0 -19 -2 -12 -5z"/>
<path d="M2391 1353 c0 -28 1 -28 11 -5 7 13 20 22 34 22 21 0 22 -2 18 -77
-3 -43 -7 -86 -9 -95 -2 -13 3 -18 18 -18 21 0 22 3 19 95 -3 91 -2 95 18 95
12 0 24 -9 30 -22 8 -22 9 -22 9 5 l1 27 -75 0 -75 0 1 -27z"/>
<path d="M2588 1280 c3 -86 6 -100 20 -100 15 0 17 11 14 94 -3 84 -1 95 15
99 10 3 2 5 -17 6 l-35 1 3 -100z"/>
<path d="M2672 1373 c9 -2 21 -16 27 -31 l9 -27 1 33 c1 29 -2 32 -26 31 -16
-1 -21 -3 -11 -6z"/>
<path d="M2775 1280 c0 -82 3 -100 15 -100 12 0 15 16 12 95 -3 94 -3 95 21
95 12 0 28 -5 35 -12 16 -16 16 -70 0 -86 -9 -9 -8 -12 4 -12 19 0 28 20 28
66 0 38 -24 54 -83 54 l-32 0 0 -100z"/>
<path d="M2945 1280 l0 -100 45 2 c36 1 38 2 13 5 l-32 4 0 89 c0 75 2 89 17
93 9 3 4 5 -13 6 l-30 1 0 -100z"/>
<path d="M3026 1373 c11 -2 25 -16 31 -31 l11 -27 1 33 c1 30 -1 32 -31 31
-21 -1 -25 -3 -12 -6z"/>
<path d="M3105 1372 c6 -4 23 -31 39 -60 21 -40 27 -64 24 -93 -3 -36 -2 -39
22 -38 14 0 19 3 13 6 -8 3 -13 23 -13 50 0 31 -8 60 -25 88 -13 23 -21 45
-18 49 3 3 -7 6 -23 6 -16 0 -24 -4 -19 -8z"/>
<path d="M3223 1369 c14 -8 22 -8 30 0 8 8 3 11 -18 11 -26 -1 -28 -2 -12 -11z"/>
<path d="M3590 1361 c0 -12 5 -21 10 -21 6 0 10 6 10 14 0 8 -4 18 -10 21 -5
3 -10 -3 -10 -14z"/>
<path d="M1620 1352 c0 -10 11 -50 24 -89 13 -39 22 -74 18 -77 -3 -3 8 -6 24
-6 16 0 24 4 18 8 -6 4 -24 46 -40 95 -27 82 -44 109 -44 69z"/>
<path d="M2044 1348 c9 -12 16 -43 16 -68 0 -25 -7 -56 -16 -68 -19 -27 -4
-29 20 -3 34 37 14 161 -25 161 -5 0 -3 -10 5 -22z"/>
<path d="M3344 1355 c-3 -8 6 -46 20 -86 14 -39 23 -75 20 -80 -3 -5 9 -9 27
-9 28 0 31 2 17 13 -9 6 -28 49 -43 95 -15 45 -29 82 -31 82 -3 0 -7 -7 -10
-15z"/>
<path d="M3475 1340 c-8 -16 -15 -43 -15 -60 0 -35 25 -90 41 -90 6 0 6 6 -1
19 -13 25 -13 102 0 135 13 36 -6 33 -25 -4z"/>
<path d="M1390 1327 c0 -23 36 -57 60 -57 12 0 32 -11 45 -25 21 -20 25 -21
25 -7 0 27 -13 40 -55 58 -22 9 -48 23 -57 32 -16 14 -18 14 -18 -1z"/>
<path d="M2655 1290 c-3 -11 -2 -28 4 -37 8 -15 10 -11 11 20 0 41 -5 47 -15
17z"/>
<path d="M3008 1293 c-3 -10 -2 -27 2 -38 6 -17 7 -17 13 5 3 13 2 30 -2 38
-7 12 -9 11 -13 -5z"/>
<path d="M1390 1213 c0 -18 4 -33 9 -33 18 0 19 15 5 40 l-13 25 -1 -32z"/>
<path d="M1866 1216 c-5 -19 -14 -26 -39 -29 -28 -3 -26 -4 11 -5 40 -2 42 -1
42 28 0 36 -6 39 -14 6z"/>
<path d="M2704 1218 c-4 -13 -12 -26 -18 -30 -6 -5 -2 -8 12 -8 18 0 22 6 22
30 0 36 -6 39 -16 8z"/>
<path d="M3596 1218 c-3 -13 -1 -27 4 -32 7 -7 10 1 10 22 0 37 -5 41 -14 10z"/>
<path d="M3052 1205 c-10 -21 -9 -25 3 -25 9 0 15 10 15 25 0 14 -2 25 -3 25
-2 0 -9 -11 -15 -25z"/>
<path d="M1550 1190 c-12 -8 -10 -10 8 -10 13 0 20 4 17 10 -7 12 -6 12 -25 0z"/>
<path d="M2135 1190 c-4 -6 3 -10 14 -10 25 0 27 6 6 13 -8 4 -17 2 -20 -3z"/>
<path d="M3269 1189 c-10 -6 -7 -9 14 -9 29 0 35 5 14 13 -8 3 -20 1 -28 -4z"/>
<path d="M2276 1048 c9 -14 8 -163 -1 -178 -3 -6 4 -10 17 -10 22 0 23 2 23
100 0 98 -1 100 -23 100 -15 0 -21 -4 -16 -12z"/>
<path d="M2377 1043 c11 -10 44 -54 74 -98 46 -68 54 -76 57 -56 2 13 0 26 -5
30 -5 3 -28 36 -52 74 -35 54 -48 67 -69 67 -25 0 -25 0 -5 -17z"/>
<path d="M2498 1053 c6 -2 18 -2 25 0 6 3 1 5 -13 5 -14 0 -19 -2 -12 -5z"/>
<path d="M2590 1038 c12 -12 45 -59 73 -103 48 -74 52 -78 55 -51 2 16 -1 32
-7 35 -6 4 -30 36 -54 72 -29 43 -51 65 -66 67 l-23 4 22 -24z"/>
<path d="M2690 1056 c0 -10 28 -13 41 -5 10 6 7 9 -13 9 -16 0 -28 -2 -28 -4z"/>
<path d="M2711 994 c0 -11 3 -14 6 -6 3 7 2 16 -1 19 -3 4 -6 -2 -5 -13z"/>
<path d="M2375 870 c-4 -6 3 -10 14 -10 25 0 27 6 6 13 -8 4 -17 2 -20 -3z"/>
<path d="M2580 870 c-12 -8 -10 -10 8 -10 13 0 20 4 17 10 -7 12 -6 12 -25 0z"/>
</g>
</svg>
